<svg width="18" height="18" viewBox="0 0 18 18" fill="none" xmlns="http://www.w3.org/2000/svg">
<path d="M4.65047 15.7496H1.38516V5.23441H4.65047V15.7496ZM3.01605 3.80004C1.97191 3.80004 1.125 2.93519 1.125 1.89105C1.125 1.38952 1.32424 0.908518 1.67888 0.553877C2.03352 0.199235 2.51452 0 3.01605 0C3.51759 0 3.99859 0.199235 4.35323 0.553877C4.70787 0.908518 4.90711 1.38952 4.90711 1.89105C4.90711 2.93519 4.05984 3.80004 3.01605 3.80004ZM16.8715 15.7496H13.6132V10.6309C13.6132 9.41098 13.5886 7.84652 11.9155 7.84652C10.2178 7.84652 9.95766 9.17191 9.95766 10.543V15.7496H6.69586V5.23441H9.82758V6.66879H9.87328C10.3092 5.84262 11.3741 4.97074 12.9628 4.97074C16.2675 4.97074 16.875 7.14691 16.875 9.97348V15.7496H16.8715Z" fill="white"/>
</svg>
