<svg width="118" height="85" viewBox="0 0 118 85" fill="none" xmlns="http://www.w3.org/2000/svg">
<path d="M1.59281 21.6114C1.49981 21.6115 1.4075 21.5955 1.32001 21.5639C1.21874 21.5281 1.12555 21.4726 1.04579 21.4006C0.966017 21.3287 0.901242 21.2417 0.85518 21.1446C0.809118 21.0476 0.782673 20.9424 0.777364 20.8351C0.772055 20.7278 0.787987 20.6205 0.824243 20.5194C0.98592 20.0412 1.24737 19.6029 1.59127 19.2334C1.93517 18.864 2.35366 18.5718 2.81902 18.3763C3.28437 18.1808 3.78595 18.0865 4.29053 18.0995C4.79511 18.1126 5.29115 18.2327 5.7458 18.4519C5.99409 18.5747 6.2659 18.6427 6.54277 18.6512C6.81964 18.6596 7.0951 18.6084 7.35044 18.501C7.60578 18.3936 7.83502 18.2326 8.0226 18.0287C8.21018 17.8249 8.35171 17.5831 8.43758 17.3198C8.59934 16.8417 8.86086 16.4034 9.20479 16.0341C9.54873 15.6647 9.96723 15.3726 10.4326 15.1772C10.8979 14.9818 11.3995 14.8875 11.904 14.9006C12.4086 14.9137 12.9045 15.0339 13.3591 15.2531C13.5557 15.3444 13.7079 15.51 13.7823 15.7135C13.8568 15.917 13.8473 16.1417 13.7561 16.3383C13.6648 16.5348 13.4992 16.687 13.2957 16.7615C13.0922 16.8359 12.8675 16.8265 12.6709 16.7352C12.4227 16.612 12.1508 16.5437 11.8738 16.5351C11.5968 16.5264 11.3211 16.5776 11.0657 16.6851C10.8102 16.7925 10.5809 16.9538 10.3934 17.1579C10.2059 17.362 10.0646 17.6041 9.97913 17.8678C9.81709 18.3457 9.5554 18.7839 9.21137 19.1532C8.86735 19.5224 8.44883 19.8145 7.9835 20.0099C7.51818 20.2053 7.01666 20.2997 6.51212 20.2869C6.00758 20.274 5.51153 20.1541 5.05678 19.9352C4.80855 19.812 4.53669 19.7437 4.25969 19.735C3.9827 19.7264 3.70709 19.7775 3.45164 19.8849C3.19619 19.9924 2.96689 20.1536 2.77937 20.3577C2.59185 20.5617 2.45052 20.8038 2.36499 21.0674C2.30834 21.2264 2.20394 21.364 2.06607 21.4614C1.9282 21.5587 1.76361 21.6111 1.59482 21.6114" fill="#B1D847"/>
<path d="M92.5346 77.3398C93.3725 77.3398 94.0517 76.6605 94.0517 75.8227C94.0517 74.9849 93.3725 74.3057 92.5346 74.3057C91.6968 74.3057 91.0176 74.9849 91.0176 75.8227C91.0176 76.6605 91.6968 77.3398 92.5346 77.3398Z" fill="#F0C374"/>
<path d="M19.1235 7.96484C19.682 7.96484 20.1348 7.5121 20.1348 6.95361C20.1348 6.39513 19.682 5.94238 19.1235 5.94238C18.565 5.94238 18.1123 6.39513 18.1123 6.95361C18.1123 7.5121 18.565 7.96484 19.1235 7.96484Z" fill="#AEFF2E"/>
<path d="M108.278 14.9023C108.836 14.9023 109.289 14.4496 109.289 13.8911C109.289 13.3326 108.836 12.8799 108.278 12.8799C107.719 12.8799 107.267 13.3326 107.267 13.8911C107.267 14.4496 107.719 14.9023 108.278 14.9023Z" fill="#AEFF2E"/>
<path d="M27.9624 44.6846C28.5209 44.6846 28.9736 44.2318 28.9736 43.6733C28.9736 43.1149 28.5209 42.6621 27.9624 42.6621C27.4039 42.6621 26.9512 43.1149 26.9512 43.6733C26.9512 44.2318 27.4039 44.6846 27.9624 44.6846Z" fill="#AEFF2E"/>
<path d="M99.9278 6.95413C99.8348 6.95431 99.7425 6.93826 99.655 6.90672C99.5537 6.87087 99.4605 6.81537 99.3807 6.74341C99.301 6.67145 99.2362 6.58445 99.1901 6.4874C99.1441 6.39035 99.1176 6.28516 99.1123 6.17786C99.107 6.07056 99.1229 5.96327 99.1592 5.86215C99.3209 5.384 99.5823 4.94567 99.9262 4.57621C100.27 4.20675 100.689 3.91459 101.154 3.7191C101.619 3.52362 102.121 3.42926 102.625 3.4423C103.13 3.45533 103.626 3.57545 104.081 3.79469C104.329 3.9175 104.601 3.98545 104.878 3.99393C105.155 4.0024 105.43 3.95121 105.685 3.84381C105.941 3.73642 106.17 3.57534 106.358 3.37152C106.545 3.16769 106.687 2.92589 106.773 2.66254C106.934 2.18446 107.196 1.74621 107.54 1.37684C107.884 1.00746 108.302 0.715397 108.768 0.519991C109.233 0.324585 109.734 0.230301 110.239 0.243385C110.744 0.256469 111.24 0.376624 111.694 0.595887C111.891 0.687149 112.043 0.852748 112.117 1.05625C112.192 1.25976 112.182 1.4845 112.091 1.68104C112 1.87758 111.834 2.02981 111.631 2.10425C111.427 2.17869 111.202 2.16924 111.006 2.07798C110.758 1.95476 110.486 1.8865 110.209 1.87784C109.932 1.86919 109.656 1.92035 109.401 2.02783C109.145 2.13531 108.916 2.2966 108.728 2.50069C108.541 2.70479 108.4 2.9469 108.314 3.21054C108.152 3.68852 107.89 4.12664 107.546 4.49593C107.202 4.86521 106.784 5.15723 106.318 5.35267C105.853 5.54811 105.352 5.64252 104.847 5.62965C104.343 5.61677 103.846 5.49691 103.392 5.27799C103.144 5.15476 102.872 5.08649 102.595 5.07781C102.318 5.06913 102.042 5.12025 101.787 5.22769C101.531 5.33514 101.302 5.49637 101.114 5.70043C100.927 5.90448 100.785 6.14655 100.7 6.41015C100.643 6.56915 100.539 6.70675 100.401 6.80413C100.263 6.90151 100.099 6.9539 99.9298 6.95413" fill="#5185F8"/>
<path d="M103.005 34.3065C102.93 34.1648 102.898 34.004 102.914 33.8443C102.929 33.6847 102.992 33.5331 103.093 33.4086C103.194 33.2841 103.329 33.1921 103.483 33.144C103.636 33.096 103.799 33.0941 103.954 33.1385L110.891 35.1549C110.994 35.1847 111.091 35.2346 111.174 35.3016C111.258 35.3686 111.328 35.4515 111.38 35.5454C111.431 35.6394 111.464 35.7426 111.476 35.8492C111.488 35.9558 111.478 36.0637 111.448 36.1667C111.419 36.2697 111.369 36.3658 111.302 36.4496C111.235 36.5333 111.152 36.603 111.058 36.6547C110.964 36.7065 110.861 36.7392 110.754 36.751C110.648 36.7628 110.54 36.7535 110.437 36.7237L103.499 34.708C103.394 34.6776 103.296 34.6264 103.211 34.5575C103.126 34.4885 103.056 34.4032 103.005 34.3065Z" fill="#ACD442"/>
<path d="M52.2498 -6.65989C52.3488 -6.78621 52.4828 -6.88061 52.635 -6.93132C52.7873 -6.98202 52.9511 -6.9868 53.1061 -6.94505C53.2611 -6.9033 53.4003 -6.81687 53.5065 -6.69652C53.6127 -6.57618 53.6812 -6.42725 53.7033 -6.26829L54.6848 0.892418C54.6994 0.998705 54.6929 1.10683 54.6658 1.21063C54.6386 1.31443 54.5913 1.41186 54.5265 1.49737C54.4617 1.58288 54.3807 1.65478 54.2881 1.70898C54.1955 1.76318 54.0931 1.79861 53.9869 1.81325C53.8806 1.82788 53.7724 1.82144 53.6686 1.79429C53.5648 1.76714 53.4674 1.71981 53.3819 1.655C53.2964 1.5902 53.2245 1.50918 53.1703 1.41659C53.1161 1.32399 53.0807 1.22163 53.066 1.11534L52.0841 -6.04473C52.0691 -6.15313 52.076 -6.26345 52.1045 -6.36912C52.133 -6.4748 52.1824 -6.57368 52.2498 -6.65989Z" fill="#AEFF2E"/>
<path d="M14.161 36.897C14.3152 36.9415 14.4528 37.0303 14.5568 37.1525C14.6609 37.2747 14.7266 37.4247 14.7459 37.584C14.7652 37.7433 14.7372 37.9047 14.6655 38.0482C14.5937 38.1917 14.4812 38.3109 14.3422 38.3909L8.07221 41.9811C7.97917 42.0345 7.87654 42.069 7.77016 42.0827C7.66379 42.0964 7.55575 42.089 7.45224 42.0609C7.34872 42.0329 7.25175 41.9847 7.16685 41.9191C7.08195 41.8536 7.01079 41.772 6.95744 41.6789C6.90408 41.5859 6.86957 41.4833 6.85588 41.3769C6.8422 41.2705 6.84959 41.1625 6.87765 41.059C6.90572 40.9555 6.95389 40.8585 7.01943 40.7736C7.08497 40.6887 7.16659 40.6175 7.25963 40.5642L13.5288 36.9737C13.6237 36.9192 13.7285 36.8844 13.8371 36.8712C13.9457 36.858 14.0559 36.8668 14.161 36.897Z" fill="#AEFF2E"/>
<path d="M25.1813 72.4719C26.1589 72.4719 26.9514 71.6794 26.9514 70.7018C26.9514 69.7242 26.1589 68.9316 25.1813 68.9316C24.2037 68.9316 23.4111 69.7242 23.4111 70.7018C23.4111 71.6794 24.2037 72.4719 25.1813 72.4719Z" fill="#AEFF2E"/>
<path d="M70.3667 47.9287C70.9252 47.9287 71.3779 47.476 71.3779 46.9175C71.3779 46.359 70.9252 45.9062 70.3667 45.9062C69.8082 45.9062 69.3555 46.359 69.3555 46.9175C69.3555 47.476 69.8082 47.9287 70.3667 47.9287Z" fill="#5185F8"/>
<path d="M38.8452 84.4404C39.4037 84.4404 39.8564 83.9877 39.8564 83.4292C39.8564 82.8707 39.4037 82.418 38.8452 82.418C38.2867 82.418 37.834 82.8707 37.834 83.4292C37.834 83.9877 38.2867 84.4404 38.8452 84.4404Z" fill="#5185F8"/>
<path d="M109.289 68.9307C109.847 68.9307 110.3 68.4779 110.3 67.9194C110.3 67.3609 109.847 66.9082 109.289 66.9082C108.73 66.9082 108.277 67.3609 108.277 67.9194C108.277 68.4779 108.73 68.9307 109.289 68.9307Z" fill="#5185F8"/>
<path d="M16.4614 30.3886C17.2992 30.3886 17.9784 29.7094 17.9784 28.8715C17.9784 28.0337 17.2992 27.3545 16.4614 27.3545C15.6235 27.3545 14.9443 28.0337 14.9443 28.8715C14.9443 29.7094 15.6235 30.3886 16.4614 30.3886Z" fill="#F0C374"/>
<path d="M116.989 22.623C117.547 22.623 118 22.1703 118 21.6118C118 21.0533 117.547 20.6006 116.989 20.6006C116.43 20.6006 115.978 21.0533 115.978 21.6118C115.978 22.1703 116.43 22.623 116.989 22.623Z" fill="#B0D746"/>
<path d="M6.29345 55.3682C6.85194 55.3682 7.30468 54.9154 7.30468 54.3569C7.30468 53.7984 6.85194 53.3457 6.29345 53.3457C5.73497 53.3457 5.28223 53.7984 5.28223 54.3569C5.28223 54.9154 5.73497 55.3682 6.29345 55.3682Z" fill="#B0D746"/>
<path d="M48.646 70.9541C49.2045 70.9541 49.6572 70.5014 49.6572 69.9429C49.6572 69.3844 49.2045 68.9316 48.646 68.9316C48.0875 68.9316 47.6348 69.3844 47.6348 69.9429C47.6348 70.5014 48.0875 70.9541 48.646 70.9541Z" fill="#B0D746"/>
</svg>
