<svg width="16" height="20" viewBox="0 0 16 20" fill="none" xmlns="http://www.w3.org/2000/svg">
<path d="M8.46875 0.253906C4.46094 0.253906 0.5 2.92578 0.5 7.25C0.5 10 2.04688 11.5625 2.98438 11.5625C3.37109 11.5625 3.59375 10.4844 3.59375 10.1797C3.59375 9.81641 2.66797 9.04297 2.66797 7.53125C2.66797 4.39063 5.05859 2.16406 8.15234 2.16406C10.8125 2.16406 12.7812 3.67578 12.7812 6.45313C12.7812 8.52735 11.9492 12.418 9.25391 12.418C8.28125 12.418 7.44922 11.7148 7.44922 10.707C7.44922 9.23047 8.48047 7.80078 8.48047 6.27735C8.48047 3.69141 4.8125 4.16016 4.8125 7.28516C4.8125 7.94141 4.89453 8.66797 5.1875 9.26563C4.64844 11.5859 3.54688 15.043 3.54688 17.4336C3.54688 18.1719 3.65234 18.8984 3.72266 19.6367C3.85547 19.7852 3.78906 19.7695 3.99219 19.6953C5.96094 17 5.89062 16.4727 6.78125 12.9453C7.26172 13.8594 8.50391 14.3516 9.48828 14.3516C13.6367 14.3516 15.5 10.3086 15.5 6.66406C15.5 2.78516 12.1484 0.253906 8.46875 0.253906Z" fill="white"/>
</svg>
