<svg width="17" height="15" viewBox="0 0 17 15" fill="none" xmlns="http://www.w3.org/2000/svg">
<path d="M15.2525 4.03765C15.2633 4.18866 15.2633 4.3397 15.2633 4.49071C15.2633 9.09665 11.7576 14.4038 5.35025 14.4038C3.37626 14.4038 1.54252 13.832 0 12.8397C0.280467 12.872 0.550109 12.8828 0.841367 12.8828C2.47015 12.8828 3.96953 12.3327 5.16687 11.3943C3.63514 11.3619 2.35151 10.3587 1.90925 8.97801C2.125 9.01035 2.34072 9.03193 2.56727 9.03193C2.88007 9.03193 3.19291 8.98877 3.48414 8.9133C1.8877 8.58967 0.690326 7.1874 0.690326 5.49388V5.45074C1.15414 5.70963 1.69353 5.87143 2.26518 5.89298C1.32673 5.26733 0.711908 4.19945 0.711908 2.99132C0.711908 2.34413 0.884465 1.75085 1.18651 1.23308C2.90162 3.34729 5.47968 4.72798 8.37051 4.87902C8.31659 4.62014 8.28421 4.35049 8.28421 4.08082C8.28421 2.16075 9.83752 0.59668 11.7683 0.59668C12.7715 0.59668 13.6776 1.01736 14.314 1.69693C15.1014 1.54592 15.8565 1.25467 16.5253 0.855565C16.2664 1.66459 15.7163 2.34416 14.9936 2.7756C15.6947 2.70013 16.3743 2.50593 16.9999 2.23628C16.5254 2.92661 15.9321 3.54143 15.2525 4.03765Z" fill="white"/>
</svg>
