<svg width="19" height="14" viewBox="0 0 19 14" fill="none" xmlns="http://www.w3.org/2000/svg">
<path d="M18.1306 2.41922C17.9234 1.59804 17.313 0.951306 16.5379 0.731827C15.133 0.333008 9.49961 0.333008 9.49961 0.333008C9.49961 0.333008 3.86624 0.333008 2.46133 0.731827C1.68625 0.951341 1.07581 1.59804 0.868625 2.41922C0.492188 3.90766 0.492188 7.01314 0.492188 7.01314C0.492188 7.01314 0.492188 10.1186 0.868625 11.6071C1.07581 12.4282 1.68625 13.048 2.46133 13.2675C3.86624 13.6663 9.49961 13.6663 9.49961 13.6663C9.49961 13.6663 15.133 13.6663 16.5379 13.2675C17.313 13.048 17.9234 12.4282 18.1306 11.6071C18.507 10.1186 18.507 7.01314 18.507 7.01314C18.507 7.01314 18.507 3.90766 18.1306 2.41922ZM7.65717 9.83269V4.1936L12.3656 7.01321L7.65717 9.83269Z" fill="white"/>
</svg>
